<?xml version="1.0" encoding="utf-8"?><!-- Uploaded to: SVG Repo, www.svgrepo.com, Generator: SVG Repo Mixer Tools -->
<svg fill="#000000" width="800px" height="800px" viewBox="0 0 24 24" id="breeze" data-name="Flat Color" xmlns="http://www.w3.org/2000/svg" class="icon flat-color"><path id="secondary" d="M11,11H5A3,3,0,0,1,5,5,1,1,0,0,1,5,7,1,1,0,0,0,5,9h6a1,1,0,0,1,0,2Zm5-5a1,1,0,0,0-1-1H11a1,1,0,0,0,0,2h4A1,1,0,0,0,16,6Z" style="fill: rgb(44, 169, 188);"></path><path id="primary" d="M8,19a3,3,0,0,1,0-6H18a1,1,0,0,1,0,2H8a1,1,0,0,0,0,2,1,1,0,0,1,0,2Zm14-9a1,1,0,0,0-1-1H15a1,1,0,0,0,0,2h6A1,1,0,0,0,22,10Z" style="fill: rgb(0, 0, 0);"></path></svg>